<svg id="Capa_1" data-name="Capa 1" xmlns="http://www.w3.org/2000/svg" viewBox="0 0 40 40"><defs><style>.cls-1{fill:#fff;}</style></defs><title>Mesa de trabajo 1</title><path id="_Trazado_compuesto_" data-name="&lt;Trazado compuesto&gt;" class="cls-1" d="M33.69,23V33.08H27.82V23.64c0-2.37-.85-4-3-4a3.21,3.21,0,0,0-3,2.15,4,4,0,0,0-.19,1.43v9.86H15.77s.08-16,0-17.66h5.87v2.5l0,.06h0v-.06A5.83,5.83,0,0,1,26.93,15c3.86,0,6.76,2.52,6.76,7.94ZM9.63,6.92A3.06,3.06,0,1,0,9.56,13h0a3.06,3.06,0,1,0,0-6.1Zm-3,26.16h5.87V15.43H6.66Zm0,0"/></svg>